<svg width="84" height="84" viewBox="0 0 84 84" fill="none" xmlns="http://www.w3.org/2000/svg">
<circle opacity="0.4" cx="42" cy="42" r="42" fill="#7CE8C7"/>
<path d="M58.3913 42C58.3913 43.7242 56.7607 45.17 56.255 46.7257C55.7309 48.3382 56.1813 50.4617 55.2035 51.8039C54.2159 53.1594 52.0483 53.3831 50.6913 54.3697C49.3477 55.3464 48.4703 57.3422 46.8561 57.8657C45.2987 58.3709 43.4217 57.288 41.6957 57.288C39.9696 57.288 38.0926 58.3709 36.5352 57.8657C34.921 57.3422 34.0436 55.3465 32.7 54.3697C31.343 53.3832 29.1754 53.1594 28.1878 51.8039C27.21 50.4617 27.6604 48.3382 27.1363 46.7258C26.6306 45.17 25 43.7242 25 42C25 40.2758 26.6306 38.83 27.1363 37.2743C27.6604 35.6618 27.21 33.5383 28.1878 32.1961C29.1754 30.8406 31.343 30.6169 32.7 29.6303C34.0436 28.6536 34.921 26.6578 36.5352 26.1343C38.0926 25.6291 39.9696 26.712 41.6957 26.712C43.4217 26.712 45.2987 25.6291 46.8561 26.1343C48.4703 26.6578 49.3477 28.6535 50.6913 29.6303C52.0483 30.6168 54.2159 30.8406 55.2035 32.1961C56.1813 33.5383 55.7309 35.6618 56.255 37.2742C56.7607 38.83 58.3913 40.2758 58.3913 42Z" fill="#006182"/>
<path d="M39.4863 46.8696C39.3136 46.8698 39.1425 46.8383 38.9829 46.7769C38.8232 46.7155 38.6783 46.6253 38.5563 46.5117L35.8194 43.9686C35.573 43.7394 35.4347 43.4286 35.4348 43.1046C35.4349 42.7806 35.5735 42.4699 35.82 42.2408C36.0666 42.0117 36.401 41.8829 36.7497 41.8828C37.0984 41.8827 37.4328 42.0112 37.6796 42.2402L39.4863 43.919L46.4063 37.4889C46.5284 37.3754 46.6734 37.2852 46.833 37.2237C46.9926 37.1622 47.1637 37.1305 47.3365 37.1305C47.5093 37.1304 47.6804 37.162 47.8401 37.2235C47.9997 37.2849 48.1448 37.3749 48.267 37.4885C48.3891 37.602 48.4861 37.7368 48.5522 37.8851C48.6183 38.0335 48.6523 38.1925 48.6522 38.353C48.6522 38.5136 48.6181 38.6726 48.5519 38.8209C48.4857 38.9692 48.3887 39.1039 48.2664 39.2174L40.4164 46.5117C40.2944 46.6253 40.1494 46.7155 39.9898 46.7769C39.8302 46.8383 39.6591 46.8698 39.4863 46.8696Z" fill="#CBF6E9"/>
</svg>
