<svg width="84" height="84" viewBox="0 0 84 84" fill="none" xmlns="http://www.w3.org/2000/svg">
<circle opacity="0.4" cx="42" cy="42" r="42" fill="#7CE8C7"/>
<path d="M29.2203 51.9495L48.3121 32.8528C46.4491 31.0235 43.9441 29.9967 41.3335 29.9921C35.8189 29.9921 31.3336 34.4785 31.3336 39.9946C31.3336 40.244 31.3416 40.476 31.3576 40.6961C29.8869 40.8563 28.5269 41.5538 27.5384 42.6548C26.5498 43.7558 26.0022 45.183 26.0004 46.6629C26.0004 48.9634 27.3164 50.9426 29.2203 51.9495ZM51.1267 38.0154C50.9088 36.9455 50.5126 35.9199 49.9548 34.9813L57.804 27.1301C57.9254 27.0043 57.9926 26.8359 57.9911 26.661C57.9896 26.4862 57.9195 26.3189 57.7959 26.1953C57.6723 26.0717 57.5051 26.0015 57.3303 26C57.1555 25.9985 56.9871 26.0657 56.8613 26.1872L26.195 56.8614C26.1331 56.9233 26.0841 56.9969 26.0506 57.0779C26.0171 57.1589 25.9999 57.2457 26 57.3333C26.0001 57.4209 26.0174 57.5076 26.051 57.5886C26.0845 57.6695 26.1337 57.743 26.1957 57.8049C26.2577 57.8668 26.3313 57.9159 26.4122 57.9494C26.4932 57.9829 26.5799 58.0001 26.6675 58C26.7551 57.9999 26.8418 57.9826 26.9227 57.949C27.0036 57.9154 27.0771 57.8662 27.139 57.8042L32.2763 52.6643H50.6668C54.7094 52.6643 58 49.3729 58 45.3292C58 41.4696 55.0054 38.2981 51.1267 38.0154Z" fill="#006182"/>
</svg>
