<svg width="84" height="84" viewBox="0 0 84 84" fill="none" xmlns="http://www.w3.org/2000/svg">
<circle opacity="0.4" cx="42" cy="42" r="42" fill="#7CE8C7"/>
<path d="M51.2222 37.5555C51.2222 47.3333 55.6667 46.4444 55.6667 50.8888C55.6667 50.8888 55.6667 52.6666 53.8889 52.6666H30.7778C29 52.6666 29 50.8888 29 50.8888C29 46.4444 33.4444 47.3333 33.4444 37.5555C33.4444 32.6471 37.4249 28.6666 42.3333 28.6666C47.2418 28.6666 51.2222 32.6471 51.2222 37.5555Z" fill="#006182"/>
<path d="M45.0001 28.6667C45.0001 27.1938 43.8054 26 42.3334 26C40.8605 26 39.6667 27.1938 39.6667 28.6667C39.6667 30.1396 40.8605 31.3334 42.3334 31.3334C43.8054 31.3334 45.0001 30.1396 45.0001 28.6667Z" fill="#006182"/>
<path d="M42.3334 58C44.2969 58 45.8889 56.408 45.8889 54.4444H38.7778C38.7778 56.408 40.3698 58 42.3334 58Z" fill="#006182"/>
</svg>
