<svg width="84" height="84" viewBox="0 0 84 84" fill="none" xmlns="http://www.w3.org/2000/svg">
<circle opacity="0.4" cx="42" cy="42" r="42" fill="#7CE8C7"/>
<path d="M30 40.1213V54.4903C30 56.4309 31.5793 58 33.5096 58H50.3355C52.2658 58 53.8451 56.4309 53.8451 54.4903V40.1213C53.8451 38.191 52.2658 36.6116 50.3355 36.6116H50.0361V34.1135C50.0361 29.6335 46.3923 26 41.9226 26C37.4529 26 33.809 29.6335 33.809 34.1135V36.6116H33.5096C31.5793 36.6116 30 38.191 30 40.1213ZM41.9226 44.7871C43.3161 44.7871 44.4413 45.9122 44.4413 47.3058C44.4413 48.6994 43.3161 49.8245 41.9226 49.8245C40.5291 49.8245 39.4039 48.6993 39.4039 47.3058C39.4039 45.9122 40.529 44.7871 41.9226 44.7871ZM36.9058 34.1135C36.9058 31.3471 39.1561 29.0968 41.9226 29.0968C44.689 29.0968 46.9393 31.3471 46.9393 34.1135V36.6116H36.9058V34.1135H36.9058Z" fill="#006182"/>
</svg>
