<svg width="84" height="84" viewBox="0 0 84 84" fill="none" xmlns="http://www.w3.org/2000/svg">
<circle opacity="0.4" cx="42" cy="42" r="42" fill="#7CE8C7"/>
<path d="M42.3686 26L41.5736 26.795C41.5736 26.795 37.3712 30.9632 31.1244 30.9632H30V42.2074C30 48.2043 33.0542 52.2197 36.0438 54.6113C39.0333 57.0029 42.0458 57.901 42.0458 57.901L42.3686 58L42.6914 57.901C42.6914 57.901 45.704 57.0029 48.6935 54.6113C51.683 52.2197 54.7372 48.2043 54.7372 42.2074V30.9632H53.6128C47.366 30.9632 43.1636 26.795 43.1636 26.795L42.3686 26ZM48.3201 36.9148L49.9101 38.5047L41.2442 47.1707L35.9515 41.878L37.5415 40.288L41.2442 43.9907L48.3201 36.9148Z" fill="#006182"/>
</svg>
