<svg width="84" height="84" viewBox="0 0 84 84" fill="none" xmlns="http://www.w3.org/2000/svg">
<circle opacity="0.4" cx="42" cy="42" r="42" fill="#7CE8C7"/>
<g clip-path="url(#clip0_188_10)">
<path fill-rule="evenodd" clip-rule="evenodd" d="M41.348 26.1491C41.5513 26.051 41.7742 26 42 26C42.2258 26 42.4487 26.051 42.652 26.1491L57.152 33.1491C57.4951 33.3172 57.7611 33.6099 57.8957 33.9675C58.0303 34.325 58.0234 34.7205 57.8765 35.0731C57.7295 35.4258 57.4535 35.7091 57.1048 35.8652C56.7561 36.0213 56.3609 36.0384 56 35.9131V54.9991H56.5C56.8978 54.9991 57.2794 55.1572 57.5607 55.4385C57.842 55.7198 58 56.1013 58 56.4991C58 56.8969 57.842 57.2785 57.5607 57.5598C57.2794 57.8411 56.8978 57.9991 56.5 57.9991H27.5C27.1022 57.9991 26.7206 57.8411 26.4393 57.5598C26.158 57.2785 26 56.8969 26 56.4991C26 56.1013 26.158 55.7198 26.4393 55.4385C26.7206 55.1572 27.1022 54.9991 27.5 54.9991H28V35.9131C27.6391 36.0384 27.2439 36.0213 26.8952 35.8652C26.5465 35.7091 26.2705 35.4258 26.1235 35.0731C25.9766 34.7205 25.9697 34.325 26.1043 33.9675C26.2389 33.6099 26.5049 33.3172 26.848 33.1491L41.348 26.1491ZM44 33.9991C44 34.5295 43.7893 35.0383 43.4142 35.4133C43.0391 35.7884 42.5304 35.9991 42 35.9991C41.4696 35.9991 40.9609 35.7884 40.5858 35.4133C40.2107 35.0383 40 34.5295 40 33.9991C40 33.4687 40.2107 32.96 40.5858 32.5849C40.9609 32.2098 41.4696 31.9991 42 31.9991C42.5304 31.9991 43.0391 32.2098 43.4142 32.5849C43.7893 32.96 44 33.4687 44 33.9991ZM37 41.4991C37 41.1013 36.842 40.7198 36.5607 40.4385C36.2794 40.1572 35.8978 39.9991 35.5 39.9991C35.1022 39.9991 34.7206 40.1572 34.4393 40.4385C34.158 40.7198 34 41.1013 34 41.4991V52.4991C34 52.8969 34.158 53.2785 34.4393 53.5598C34.7206 53.8411 35.1022 53.9991 35.5 53.9991C35.8978 53.9991 36.2794 53.8411 36.5607 53.5598C36.842 53.2785 37 52.8969 37 52.4991V41.4991ZM43.5 41.4991C43.5 41.1013 43.342 40.7198 43.0607 40.4385C42.7794 40.1572 42.3978 39.9991 42 39.9991C41.6022 39.9991 41.2206 40.1572 40.9393 40.4385C40.658 40.7198 40.5 41.1013 40.5 41.4991V52.4991C40.5 52.8969 40.658 53.2785 40.9393 53.5598C41.2206 53.8411 41.6022 53.9991 42 53.9991C42.3978 53.9991 42.7794 53.8411 43.0607 53.5598C43.342 53.2785 43.5 52.8969 43.5 52.4991V41.4991ZM50 41.4991C50 41.1013 49.842 40.7198 49.5607 40.4385C49.2794 40.1572 48.8978 39.9991 48.5 39.9991C48.1022 39.9991 47.7206 40.1572 47.4393 40.4385C47.158 40.7198 47 41.1013 47 41.4991V52.4991C47 52.8969 47.158 53.2785 47.4393 53.5598C47.7206 53.8411 48.1022 53.9991 48.5 53.9991C48.8978 53.9991 49.2794 53.8411 49.5607 53.5598C49.842 53.2785 50 52.8969 50 52.4991V41.4991Z" fill="#006182"/>
</g>
<defs>
<clipPath id="clip0_188_10">
<rect width="32" height="32" fill="white" transform="translate(26 26)"/>
</clipPath>
</defs>
</svg>
