<svg width="84" height="84" viewBox="0 0 84 84" fill="none" xmlns="http://www.w3.org/2000/svg">
<circle opacity="0.4" cx="42" cy="42" r="42" fill="#7CE8C7"/>
<path d="M41.5556 41.4611V35.1333C39.7163 35.0792 37.8926 34.7784 36.1333 34.2389C35.1397 36.5238 34.5748 38.9719 34.4667 41.4611H41.5556ZM41.5556 48.9V42.5722H34.4889C34.5828 45.0575 35.1287 47.5049 36.1 49.7944C37.87 49.2524 39.7051 48.9515 41.5556 48.9V48.9ZM41.5556 34.0056V26.3111C39.4746 28.279 37.7921 30.6292 36.6 33.2333C38.2119 33.7024 39.8774 33.9619 41.5556 34.0056ZM42.6667 42.5722V48.9C44.519 48.9506 46.3561 49.2515 48.1278 49.7944C49.1005 47.5051 49.6483 45.0578 49.7445 42.5722H42.6667ZM42.6667 50.0222V57.8C43.7778 56.9111 46 54.3611 47.6667 50.8333C46.0425 50.3461 44.3616 50.0734 42.6667 50.0222V50.0222ZM33.3722 42.5722H26C26.127 46.3512 27.585 49.9638 30.1167 52.7722C31.611 51.6668 33.2553 50.7801 35 50.1389C34.0128 47.7332 33.4616 45.171 33.3722 42.5722V42.5722ZM42.6667 35.1333V41.4611H49.7445C49.6452 38.9736 49.0897 36.5256 48.1056 34.2389C46.3409 34.7794 44.5115 35.0802 42.6667 35.1333V35.1333ZM33.3722 41.4611C33.4877 38.862 34.075 36.3056 35.1056 33.9167C33.3285 33.278 31.655 32.3813 30.1389 31.2556C27.598 34.0623 26.1319 37.6774 26 41.4611H33.3722ZM50.8611 42.5722C50.7591 45.1734 50.1947 47.7356 49.1945 50.1389C50.9378 50.7792 52.5804 51.666 54.0722 52.7722C56.616 49.9685 58.086 46.3554 58.2222 42.5722H50.8611ZM35.4444 51.1722C33.8242 51.7616 32.2945 52.575 30.9 53.5889C33.4148 56.0263 36.6571 57.5752 40.1333 58C38.1662 56.0298 36.577 53.7156 35.4444 51.1722V51.1722ZM49.1333 33.9167C50.1622 36.3058 50.7477 38.8623 50.8611 41.4611H58.2222C58.095 37.6795 56.6349 34.0647 54.1 31.2556C52.5834 32.3806 50.9101 33.2772 49.1333 33.9167V33.9167ZM48.6778 32.8889C50.3281 32.3006 51.8848 31.4773 53.3 30.4444C50.7679 27.9785 47.4932 26.4164 43.9833 26C45.9288 28.0124 47.5164 30.3422 48.6778 32.8889V32.8889ZM42.6667 26.3V34.0056C44.3468 33.9597 46.0142 33.6983 47.6278 33.2278C46.4346 30.6212 44.7502 28.269 42.6667 26.3ZM48.7778 51.1722C47.6436 53.716 46.0524 56.0302 44.0833 58C47.5603 57.5737 50.8027 56.0228 53.3167 53.5833C51.9242 52.5709 50.3962 51.7593 48.7778 51.1722V51.1722ZM35.5611 32.8944C36.727 30.3525 38.3184 28.0284 40.2667 26.0222C36.7489 26.4339 33.4658 27.9963 30.9278 30.4667C32.3469 31.4954 33.9075 32.3132 35.5611 32.8944V32.8944ZM41.5556 57.7722V49.9944C39.8617 50.039 38.1809 50.3042 36.5556 50.7833C38.2222 54.3278 40.4444 56.8722 41.5556 57.7722Z" fill="#006182"/>
</svg>
