<?xml version="1.0" encoding="utf-8"?>
<!-- Generator: Adobe Illustrator 25.3.1, SVG Export Plug-In . SVG Version: 6.00 Build 0)  -->
<svg version="1.1" id="Layer_1" xmlns="http://www.w3.org/2000/svg" xmlns:xlink="http://www.w3.org/1999/xlink" x="0px" y="0px"
	 viewBox="0 0 725.7 416.2" style="enable-background:new 0 0 725.7 416.2;" xml:space="preserve">
<style type="text/css">
	.st1{fill:none;}
	.st3{fill:#CE1141;}
</style>
<g id="Layer_2_1_">
	<g id="Layer_1-2">
		<path class="themed defaultFill-HeaderText" fill="#fff" d="M37.6,237h15.6l-3.3,17.6l-0.7,4c4.4-3.9,10.2-6.1,16.2-5.9c10.9,0,24.3,7.8,20.6,27.5
			c-3.5,18.8-18.3,28.2-31.6,28.2c-7.3,0-12.2-3.6-13.7-7.3l-1,5.5h-15L37.6,237z M70.4,280.3c1.2-6.7-2.6-13.2-10.3-13.2
			c-8.3,0-14.3,6.7-15.4,13.2c-1.4,7.2,2.3,13.4,10.2,13.4c8,0,14.3-6.5,15.6-13.3V280.3z"/>
		<path class="themed defaultFill-HeaderText" fill="#fff" d="M102.3,303.9l-10.1-49.5h16.6l5,30.3l15.6-30.3h16.5l-39,69.6H90.3L102.3,303.9z"/>
		<path class="st1" d="M550.8,127.1c9.6,0.2,18.8-3.6,25.4-10.6c7-7.2,10.4-15.7,10.4-26.1s-3.4-18.9-10.4-26
			c-13.9-14-36.6-14.1-50.6-0.2c-0.1,0.1-0.1,0.1-0.2,0.2c-7,7.2-10.4,15.7-10.4,26.1s3.4,18.9,10.4,26
			C532,123.4,541.2,127.3,550.8,127.1z"/>
		<path class="st1" d="M126.2,162.5c-1.1,1.5-1.7,3.3-1.9,5.2c-0.1,0.8-0.1,1.5,0,2.3c0.2,0.8,0.5,1.5,0.9,2.2
			c1.6,2.8,5.1,4.5,9.5,4.8c2.3,0.2,4.7,0,7-0.3c1.2-0.2,2.3-0.4,3.6-0.7c1.1-0.3,2.2-0.6,3.2-1c4.4-1.6,8.4-4.1,11.8-7.3l0,0
			c4.3-3.8,8.1-8.2,11.2-13c-1-0.1-1.9-0.2-2.7-0.3c-2.8-0.3-5.5-0.6-8.2-0.8c-1.5-0.1-3.1-0.2-4.9-0.2c-0.9,0-1.9,0-3,0
			c-5.2,0.1-10.4,0.8-15.4,2.2C133.8,156.7,128.9,158.8,126.2,162.5z"/>
		<path class="themed defaultFill-HeaderText" fill="#fff" d="M321.1,145.8c13.6,0,27-3.9,38.6-11.1c12.1-7.4,20.9-17,26.1-28.5l2.5-5.6h-22.8l-1.2,2
			c-4,6.7-10,12.3-18,16.7c-7.7,4.3-16.4,6.6-25.2,6.6c-14.9,0-27.1-5-37.4-15.3S268.5,88,268.5,73s5-27.3,15.3-37.7
			s22.5-15.4,37.3-15.4c8.5,0.1,16.9,2.3,24.4,6.4c7.8,4.2,13.7,9.6,17.5,16.2l1.1,2H387l-2.5-5.6c-5.1-11.3-13.7-20.7-25.6-28
			C347.5,3.8,334.5,0,321.1,0c-20.6,0-38.3,7.1-52.5,21.2S247.1,52.6,247.1,73s7.3,37.7,21.6,51.8
			C282.9,138.8,300.6,145.8,321.1,145.8z"/>
		<path class="themed defaultFill-HeaderText" fill="#fff" d="M413.7,86.9c0-10.9,2.4-19.3,7-25c4.6-5.5,11-8.2,19.7-8.2c8.5,0,14.9,2.7,19.5,8.1s7.1,13.5,7.1,23.7v57.9
			h20.6V86c0-15.9-4.2-28.6-12.5-37.7s-20.1-13.9-34.8-13.9c-10.7,0-19.7,3-26.7,9.1V2.3h-20.6v141.2h20.6L413.7,86.9z"/>
		<path class="themed defaultFill-HeaderText" fill="#fff" d="M550.3,145.8c14,0,26-4.3,35.8-12.8v10.5h20.6V37h-20.6v10.5c-9.8-8.5-21.8-12.9-35.8-12.9
			c-15.5,0-28.8,5.4-39.6,16.1s-16.3,24-16.3,39.5s5.5,28.7,16.3,39.4C521.5,140.4,534.8,145.8,550.3,145.8z M515,90.5
			c0-10.4,3.4-18.9,10.4-26.1c13.9-14,36.6-14.1,50.6-0.2c0.1,0.1,0.1,0.1,0.2,0.2c7,7.1,10.4,15.6,10.4,26s-3.4,18.9-10.4,26.1
			c-14,14-36.6,14.1-50.7,0.1c0,0-0.1-0.1-0.1-0.1C518.4,109.4,515,100.9,515,90.5z"/>
		<path class="themed defaultFill-HeaderText" fill="#fff" d="M702.3,37V2.5h-20.6V37h-18v0.4h-0.5c-10.1,0.4-18.2,3.2-24,8.5V37h-20.5v106.2c-13.9,4.1-29.4,7.8-46.5,11.3
			c-28.3,5.5-56.9,8.9-85.7,10.1c-29,1.3-58,1.1-86.9-0.6c-28.1-1.6-57.2-4.4-86.4-8.6c-11.4-1.6-22.3-3.4-34-5.3l-9-1.5
			c-15.5-2.5-29.8-4.5-43.8-6.3c-8.6-1.1-17.4-2-25.7-2.7c4.5-10.1,7.5-18.1,8.4-20.5L242.5,37h-22.4l-23.5,60l-23.6-60h-22.4
			l34.9,85.9l-0.2,0.6c-0.4,1.1-0.8,2.2-1.2,3.3l-0.7,1.9c-1.5,3.6-3,7.3-4,9.6c-3.6,0-6.9,0-10,0.1c-3,0.1-5.9,0.3-8.9,0.6
			c-3.1,0.3-6.1,0.7-9.1,1.3c-1.8,0.3-3.6,0.7-5.3,1.1V4.4h-8.2L73.1,85.8L8,4.4H0v139.1h22.8V59.1c0-0.7,0-1.5,0-2.3
			c0.8,1.1,1.7,2.2,2.5,3.2l44.3,56.7h6.4l44.9-56.6c0.8-1,1.7-2.1,2.5-3.3c0,0.8,0,1.5,0,2.3v84.4h14c-1.2,0.4-2.4,0.8-3.5,1.2
			c-5.7,2.1-12.1,5.1-16.7,11.1c-2.3,3.1-3.8,6.7-4.3,10.5c-0.1,0.9-0.2,1.8-0.3,2.7v1.5c0,0.6,0.1,1.3,0.2,1.9c0.3,2,1,4,2,5.9
			c1.9,3.5,4.7,6.5,8.2,8.5c3.2,1.9,6.7,3.1,10.3,3.6c2.3,0.4,4.7,0.6,7.1,0.6c0.9,0,1.9,0,2.9-0.1c1.6-0.1,3.3-0.2,4.8-0.4
			c1.7-0.2,3.3-0.5,5-0.9c6.5-1.6,12.7-4.4,18.3-8.1c5.3-3.4,10-7.6,14.1-12.4c2.9-3.5,5.3-7.2,7.4-11.2l2.9,0.3
			c9.2,0.9,18.7,1.9,27.8,3c13.7,1.6,27.7,3.6,43,5.9l10,1.6c11,1.7,22.3,3.5,33.6,5c30,3.9,59.8,6.5,88.6,7.7
			c29.8,1.3,59.6,0.9,89.3-1.1c32.6-2.4,61.4-6.6,87.9-12.9c35-8.3,63.5-18.2,84.6-29.3l2.2-1.1l-0.2-9.8l-5.5,2.5
			c-5.3,2.4-11.1,4.8-17.4,7.1V89.3c0-10.1,2.7-19.3,6.9-23.5c5.9-5.8,11.6-8.8,17.5-9.3l2.7-0.2h15.3v87.3h20.6V56.3h23.3V37H702.3
			z M155.8,153.4c1.8,0,3.4,0.1,4.9,0.2c2.7,0.2,5.4,0.4,8.2,0.8c0.8,0.1,1.7,0.2,2.7,0.3c-3.1,4.8-6.9,9.2-11.2,13l0,0
			c-3.4,3.2-7.4,5.8-11.8,7.4c-1.1,0.4-2.1,0.7-3.2,1c-1.3,0.3-2.4,0.6-3.6,0.7c-2.3,0.4-4.7,0.5-7,0.3c-4.4-0.3-7.8-2.1-9.5-4.8
			c-0.4-0.7-0.7-1.4-0.9-2.2c-0.1-0.8-0.1-1.5,0-2.3c0.2-1.9,0.8-3.7,1.9-5.2c2.6-3.7,7.5-5.8,11.2-6.9c5-1.4,10.2-2.1,15.4-2.2
			C153.9,153.4,154.8,153.4,155.8,153.4z"/>
		<path class="opaqueOutline" fill="#fff" d="M651.6,256.5L651.6,256.5c-13-13.6-34-20.2-64.3-20.2c-20.1,0-37.8,3.3-52.8,9.9l9-42.2h-75.3l-9.5,44.6
			c-11.2-7.1-25.7-10.8-42.5-10.8c-7.1,0-14.2,0.9-21.1,2.7h-38.1l6.3-29.7h-172L157,378.5h136l-8,37.7h75.3l7.9-37
			c8.1,2.5,16.5,3.7,24.9,3.6c13.4,0.1,26.6-2.6,38.9-7.8l-0.8,3.6h75.3l1.8-8.5c13.3,8.5,31.8,12.8,55.1,12.8
			c48.8,0,80.4-18,96.8-55.2c2.3-6,3.7-12.3,4.2-18.7l0.8-13.3C665.7,279.7,661.2,266.6,651.6,256.5z"/>
		<polygon class="st3" points="522.6,221 481.9,221 476.6,245.6 517.4,245.6 		"/>
		<path class="st3" d="M305.9,399.3h40.7l10-47.1h0.4c5.3,7.7,17.9,13.6,35.9,13.6c30.9,0,54.8-15.9,66.2-38l-7.1,33.8h40.7l8-37.5
			c0.2,28.4,22.8,41.7,62.7,41.7c44.9,0,68.6-16.3,81.3-45.1h-43.1c-5.8,12.1-17,18.2-31.7,18.2c-19.6,0-28.5-10.6-24.5-29.4
			s17.8-29.4,36.8-29.4c15.5,0,22.8,5.3,23.8,14.5h42.2c1.4-30.5-23.4-41.4-60.8-41.4c-38.8,0-68.1,14-80.5,42.2l8.1-38h-40.7
			l-7.5,35.3c-1.8-24.5-20.4-38-50.4-38c-16.5,0-32.2,6-43.1,16.5h-0.4l2.9-13.8h-39.6L320.2,332h-90.5l4.3-23.4h80.8l6-28.4h-80.7
			l4.4-22.9h91.7l6.3-29.6H205l-27.3,133.9h136.2L305.9,399.3z M365.7,309.7c3.4-16.1,15.6-26.5,34.6-26.5
			c18.6,0,26.9,9.2,23.2,26.5s-15.8,26.5-34.5,26.5C370,336.3,362.3,325.9,365.7,309.7z"/>
	</g>
</g>
</svg>
